
<!-- Generator: visioncortex VTracer 0.6.4 -->
<svg version="1.1" xmlns="http://www.w3.org/2000/svg" viewBox="0 0 91 76" preserveAspectRatio="xMidYMid meet">
<path d="M0 0 C1.301 0.003 2.601 0.006 3.941 0.01 C5.881 -0.014 5.881 -0.014 7.859 -0.039 C9.721 -0.04 9.721 -0.04 11.621 -0.041 C13.33 -0.045 13.33 -0.045 15.074 -0.05 C18.448 0.37 19.762 0.841 22.066 3.322 C23.068 5.912 23.068 5.912 23.777 9.045 C24.05 10.212 24.322 11.378 24.603 12.58 C24.88 13.836 25.156 15.091 25.441 16.385 C25.891 18.344 26.342 20.303 26.792 22.262 C27.253 24.278 27.707 26.296 28.16 28.315 C29.026 32.167 29.935 36.009 30.852 39.85 C31.403 42.174 31.953 44.498 32.504 46.822 C32.892 48.449 32.892 48.449 33.289 50.108 C33.641 51.622 33.641 51.622 34 53.166 C34.207 54.045 34.414 54.923 34.627 55.828 C35.094 58.481 35.425 60.643 35.066 63.322 C32.839 65.804 31.304 66.282 28.014 66.834 C21.549 67.155 21.549 67.155 18.594 67.25 C16.571 67.322 14.553 67.436 12.531 67.553 C10.615 67.624 10.615 67.624 8.66 67.697 C7.492 67.746 6.323 67.795 5.119 67.846 C2.066 67.322 2.066 67.322 -0.23 65.327 C-2.377 61.541 -3.09 58.134 -3.785 53.873 C-3.93 53.06 -4.075 52.248 -4.224 51.41 C-4.683 48.821 -5.121 46.228 -5.559 43.635 C-5.859 41.911 -6.161 40.188 -6.465 38.465 C-7.043 35.179 -7.613 31.892 -8.18 28.604 C-8.766 25.231 -9.406 21.874 -10.098 18.521 C-10.828 14.964 -11.36 11.444 -11.684 7.822 C-11.782 6.822 -11.88 5.822 -11.98 4.791 C-11.857 -1.73 -4.8 0.027 0 0 Z " fill="#766DFC" transform="translate(17.93359375,7.677734375)"/>
<path d="M0 0 C2.003 3.004 2.639 4.98 3.473 8.445 C3.862 10.062 3.862 10.062 4.26 11.711 C4.525 12.838 4.79 13.964 5.062 15.125 C5.331 16.228 5.6 17.332 5.877 18.469 C7.347 24.643 8.572 30.661 9 37 C6.809 39.191 2.109 38.754 -0.938 39.062 C-1.8 39.152 -2.662 39.241 -3.55 39.333 C-9.397 39.912 -15.122 40.193 -21 40 C-23.207 31.676 -25.233 23.355 -26.75 14.875 C-26.877 14.178 -27.005 13.48 -27.136 12.762 C-27.822 8.787 -28.047 5.025 -28 1 C-24.05 0.783 -20.099 0.586 -16.147 0.408 C-14.802 0.344 -13.458 0.275 -12.114 0.201 C-10.183 0.095 -8.252 0.01 -6.32 -0.074 C-4.576 -0.161 -4.576 -0.161 -2.797 -0.249 C-1.413 -0.126 -1.413 -0.126 0 0 Z " fill="#F7F7FA" transform="translate(41,32)"/>
<path d="M0 0 C1.301 0.003 2.601 0.006 3.941 0.01 C5.881 -0.014 5.881 -0.014 7.859 -0.039 C9.721 -0.04 9.721 -0.04 11.621 -0.041 C13.33 -0.045 13.33 -0.045 15.074 -0.05 C18.448 0.37 19.762 0.841 22.066 3.322 C23.068 5.912 23.068 5.912 23.777 9.045 C24.05 10.212 24.322 11.378 24.603 12.58 C24.88 13.836 25.156 15.091 25.441 16.385 C25.891 18.344 26.342 20.303 26.792 22.262 C27.253 24.278 27.707 26.296 28.16 28.315 C29.026 32.167 29.935 36.009 30.852 39.85 C31.403 42.174 31.953 44.498 32.504 46.822 C32.892 48.449 32.892 48.449 33.289 50.108 C33.641 51.622 33.641 51.622 34 53.166 C34.207 54.045 34.414 54.923 34.627 55.828 C35.094 58.481 35.425 60.643 35.066 63.322 C32.839 65.804 31.304 66.282 28.014 66.834 C21.549 67.155 21.549 67.155 18.594 67.25 C16.571 67.322 14.553 67.436 12.531 67.553 C10.615 67.624 10.615 67.624 8.66 67.697 C7.492 67.746 6.323 67.795 5.119 67.846 C2.066 67.322 2.066 67.322 -0.23 65.327 C-2.377 61.541 -3.09 58.134 -3.785 53.873 C-3.93 53.06 -4.075 52.248 -4.224 51.41 C-4.683 48.821 -5.121 46.228 -5.559 43.635 C-5.859 41.911 -6.161 40.188 -6.465 38.465 C-7.043 35.179 -7.613 31.892 -8.18 28.604 C-8.766 25.231 -9.406 21.874 -10.098 18.521 C-10.828 14.964 -11.36 11.444 -11.684 7.822 C-11.782 6.822 -11.88 5.822 -11.98 4.791 C-11.857 -1.73 -4.8 0.027 0 0 Z M-8.934 3.322 C-8.923 13.314 -6.874 23.21 -5.032 32.989 C-4.558 35.514 -4.097 38.042 -3.637 40.57 C-2.151 48.627 -0.623 56.561 2.066 64.322 C11.827 64.642 21.387 63.435 31.066 62.322 C32.307 58.601 31.63 55.868 30.879 52.135 C30.742 51.426 30.604 50.718 30.463 49.988 C29.349 44.389 27.991 38.866 26.55 33.343 C25.314 28.533 24.362 23.712 23.504 18.822 C22.287 9.925 22.287 9.925 18.066 2.322 C15.566 2.156 15.566 2.156 13.066 2.322 C12.736 2.652 12.406 2.982 12.066 3.322 C9.735 3.421 7.4 3.452 5.066 3.447 C3.788 3.45 2.509 3.452 1.191 3.455 C-1.934 3.322 -1.934 3.322 -2.934 2.322 C-6.223 1.916 -6.223 1.916 -8.934 3.322 Z " fill="#48455C" transform="translate(17.93359375,7.677734375)"/>
<path d="M0 0 C0.536 0.227 1.073 0.454 1.625 0.688 C1.955 2.008 2.285 3.328 2.625 4.688 C1.305 5.017 -0.015 5.347 -1.375 5.688 C-1.375 6.347 -1.375 7.008 -1.375 7.688 C-2.035 7.688 -2.695 7.688 -3.375 7.688 C-2.385 9.172 -2.385 9.172 -1.375 10.688 C-1.539 12.816 -1.539 12.816 -2 15.25 C-2.747 21.314 -0.874 25.263 1.625 30.688 C2.397 32.616 3.147 34.554 3.875 36.5 C4.21 37.373 4.545 38.245 4.891 39.145 C5.625 41.688 5.625 41.688 5.625 46.688 C9.255 46.688 12.885 46.688 16.625 46.688 C16.625 47.017 16.625 47.347 16.625 47.688 C3.425 47.688 -9.775 47.688 -23.375 47.688 C-23.375 47.358 -23.375 47.028 -23.375 46.688 C-18.92 46.192 -18.92 46.192 -14.375 45.688 C-13.306 40.958 -12.825 36.189 -12.312 31.375 C-12.222 30.539 -12.131 29.703 -12.037 28.842 C-11.814 26.791 -11.594 24.739 -11.375 22.688 C-12.035 22.688 -12.695 22.688 -13.375 22.688 C-12.93 21.866 -12.93 21.866 -12.477 21.027 C-11.272 18.469 -10.499 15.976 -9.75 13.25 C-9.49 12.323 -9.229 11.396 -8.961 10.441 C-8.391 7.764 -8.266 5.415 -8.375 2.688 C-2.96 -0.389 -2.96 -0.389 0 0 Z M-6.375 28.688 C-7.07 31.498 -7.756 34.311 -8.438 37.125 C-8.637 37.927 -8.836 38.73 -9.041 39.557 C-9.53 41.59 -9.958 43.638 -10.375 45.688 C-9.315 46.974 -9.315 46.974 -6.871 46.785 C-5.862 46.774 -4.852 46.762 -3.812 46.75 C-2.801 46.741 -1.789 46.732 -0.746 46.723 C0.036 46.711 0.819 46.699 1.625 46.688 C3.054 43.543 3.054 43.543 0.973 40.113 C0.221 38.737 -0.541 37.366 -1.312 36 C-1.699 35.298 -2.085 34.596 -2.482 33.873 C-3.438 32.14 -4.405 30.413 -5.375 28.688 C-5.705 28.688 -6.035 28.688 -6.375 28.688 Z " fill="#2F2E41" transform="translate(74.375,28.3125)"/>
<path d="M0 0 C2.5 0.125 2.5 0.125 3.5 1.125 C5.832 1.224 8.166 1.255 10.5 1.25 C11.779 1.253 13.058 1.255 14.375 1.258 C17.367 1.484 17.367 1.484 18.5 0.125 C20.938 -0.062 20.938 -0.062 23.5 0.125 C25.5 2.125 25.5 2.125 26.5 9.125 C17.26 9.125 8.02 9.125 -1.5 9.125 C-1.17 12.095 -0.84 15.065 -0.5 18.125 C-2.503 14.118 -2.888 11.825 -3.188 7.438 C-3.274 6.279 -3.36 5.12 -3.449 3.926 C-3.466 3.002 -3.483 2.077 -3.5 1.125 C-2.5 0.125 -2.5 0.125 0 0 Z " fill="#FAFAFB" transform="translate(12.5,9.875)"/>
<path d="M0 0 C0.33 1.32 0.66 2.64 1 4 C-0.32 4.33 -1.64 4.66 -3 5 C-3 5.66 -3 6.32 -3 7 C-3.66 7 -4.32 7 -5 7 C-4.01 8.485 -4.01 8.485 -3 10 C-3.032 13.063 -3.559 15.959 -4 19 C-6.97 19 -9.94 19 -13 19 C-12.536 17.298 -12.536 17.298 -12.062 15.562 C-11.232 12.387 -10.895 9.462 -10.75 6.188 C-10.535 3.926 -10.535 3.926 -10 2 C-6.573 -0.589 -4.081 -1.727 0 0 Z " fill="#C7C7C9" transform="translate(76,29)"/>
<path d="M0 0 C0.536 0.227 1.073 0.454 1.625 0.688 C1.955 2.008 2.285 3.328 2.625 4.688 C1.305 5.017 -0.015 5.347 -1.375 5.688 C-1.375 6.347 -1.375 7.008 -1.375 7.688 C-3.366 8.069 -5.368 8.401 -7.375 8.688 C-8.375 7.688 -8.375 7.688 -8.438 5.125 C-8.417 4.321 -8.396 3.516 -8.375 2.688 C-2.96 -0.389 -2.96 -0.389 0 0 Z " fill="#383346" transform="translate(74.375,28.3125)"/>
<path d="M0 0 C0.66 0 1.32 0 2 0 C2.33 1.32 2.66 2.64 3 4 C6.63 4 10.26 4 14 4 C14 4.33 14 4.66 14 5 C0.8 5 -12.4 5 -26 5 C-26 4.67 -26 4.34 -26 4 C-25.397 3.939 -24.793 3.879 -24.172 3.816 C-22.973 3.691 -22.973 3.691 -21.75 3.562 C-20.961 3.481 -20.172 3.4 -19.359 3.316 C-17.001 3.051 -17.001 3.051 -14.766 2.402 C-14.183 2.27 -13.6 2.137 -13 2 C-12.67 2.33 -12.34 2.66 -12 3 C-10.147 3.072 -8.292 3.084 -6.438 3.062 C-5.426 3.053 -4.414 3.044 -3.371 3.035 C-2.589 3.024 -1.806 3.012 -1 3 C-0.67 2.01 -0.34 1.02 0 0 Z " fill="#3F3B52" transform="translate(77,71)"/>
<path d="M0 0 C2.97 0.495 2.97 0.495 6 1 C6 2.65 6 4.3 6 6 C4.35 6 2.7 6 1 6 C0.67 4.02 0.34 2.04 0 0 Z M4 2 C4 2.66 4 3.32 4 4 C3.01 4.495 3.01 4.495 2 5 C2.99 5 3.98 5 5 5 C4.67 4.01 4.34 3.02 4 2 Z " fill="#E4E4E7" transform="translate(0,35)"/>
<path d="M0 0 C1.666 -0.043 3.334 -0.041 5 0 C6 1 6 1 6.062 3.562 C6.042 4.367 6.021 5.171 6 6 C4.35 5.67 2.7 5.34 1 5 C0.67 3.35 0.34 1.7 0 0 Z M1 1 C2 4 2 4 2 4 Z M3 2 C4 4 4 4 4 4 Z " fill="#E4E4E7" transform="translate(48,14)"/>
<path d="M0 0 C1.65 0 3.3 0 5 0 C5 1.32 5 2.64 5 4 C3.35 4 1.7 4 0 4 C0 2.68 0 1.36 0 0 Z M1 1 C1 1.66 1 2.32 1 3 C1.99 3 2.98 3 4 3 C4 2.34 4 1.68 4 1 C3.01 1 2.02 1 1 1 Z " fill="#E4E4E7" transform="translate(18,0)"/>
<path d="M0 0 C0.66 0 1.32 0 2 0 C2.33 1.32 2.66 2.64 3 4 C1.68 4.33 0.36 4.66 -1 5 C-0.67 3.35 -0.34 1.7 0 0 Z " fill="#4E4557" transform="translate(77,71)"/>
<path d="M0 0 C1.98 0.495 1.98 0.495 4 1 C3.34 1 2.68 1 2 1 C2 1.66 2 2.32 2 3 C1.01 3 0.02 3 -1 3 C-0.67 2.01 -0.34 1.02 0 0 Z " fill="#866876" transform="translate(62,48)"/>
</svg>