
<!-- Generator: visioncortex VTracer 0.6.4 -->
<svg version="1.1" xmlns="http://www.w3.org/2000/svg" viewBox="0 0 101 89" preserveAspectRatio="xMidYMid meet">
<path d="M0 0 C3.333 3.174 6.222 6.564 8.625 10.5 C8.625 11.16 8.625 11.82 8.625 12.5 C9.398 12.454 10.172 12.407 10.969 12.359 C17.79 12.123 23.097 12.232 28.625 16.5 C34.739 22.299 37.824 27.614 38.672 36.008 C38.589 40.411 37.14 44.401 35.625 48.5 C37.935 48.5 40.245 48.5 42.625 48.5 C43.12 51.47 43.12 51.47 43.625 54.5 C44.018 52.462 44.389 50.419 44.75 48.375 C45.063 46.67 45.063 46.67 45.383 44.93 C45.644 41.23 45.022 38.903 43.625 35.5 C44.615 34.51 44.615 34.51 45.625 33.5 C48.75 33.875 48.75 33.875 51.625 34.5 C51.56 36.518 51.495 38.536 51.43 40.555 C51.442 42.739 51.442 42.739 53.625 44.5 C54.682 49.528 54.67 54.76 54.543 59.879 C54.225 71.136 54.225 71.136 57.75 81.75 C58.625 83.5 58.625 83.5 58.625 85.5 C63.575 85.83 68.525 86.16 73.625 86.5 C73.625 86.83 73.625 87.16 73.625 87.5 C57.455 87.5 41.285 87.5 24.625 87.5 C24.625 87.17 24.625 86.84 24.625 86.5 C31.06 86.005 31.06 86.005 37.625 85.5 C36.635 84.51 35.645 83.52 34.625 82.5 C33.676 80.238 33.676 80.238 32.938 77.812 C32.686 77.004 32.435 76.196 32.176 75.363 C31.994 74.748 31.812 74.134 31.625 73.5 C37.559 73.914 37.923 74.798 42.625 79.5 C42.625 74.22 42.625 68.94 42.625 63.5 C39.827 63.517 39.827 63.517 36.973 63.535 C34.544 63.545 32.116 63.554 29.688 63.562 C28.456 63.571 27.224 63.579 25.955 63.588 C24.785 63.591 23.615 63.594 22.41 63.598 C20.784 63.606 20.784 63.606 19.125 63.614 C16.625 63.5 16.625 63.5 15.625 62.5 C13.961 62.253 12.293 62.028 10.625 61.812 C2.651 60.385 -2.94 56.86 -7.812 50.375 C-10.163 46.637 -10.722 43.619 -11.125 39.25 C-11.39 36.192 -11.39 36.192 -12.375 33.5 C-14.775 31.652 -17.082 30.667 -19.887 29.543 C-23.965 27.834 -25.232 26.429 -27.375 22.5 C-28.537 16.194 -28.16 10.943 -24.75 5.438 C-18.634 -2.377 -9.066 -4.029 0 0 Z M47.625 71.5 C47.431 73.624 47.245 75.75 47.062 77.875 C46.958 79.058 46.854 80.242 46.746 81.461 C46.383 84.419 46.383 84.419 47.625 86.5 C49.275 86.5 50.925 86.5 52.625 86.5 C53.285 85.18 53.945 83.86 54.625 82.5 C54.287 82.041 53.95 81.582 53.602 81.109 C53.156 80.496 52.71 79.882 52.25 79.25 C51.809 78.647 51.368 78.043 50.914 77.422 C49.632 75.51 48.609 73.579 47.625 71.5 Z M43.625 82.5 C44.625 84.5 44.625 84.5 44.625 84.5 Z " fill="#C5C5C8" transform="translate(27.375,1.5)"/>
<path d="M0 0 C9.692 9.23 13.103 20.905 13.758 34.195 C13.744 38.416 13.721 42.389 12.625 46.5 C12.187 46.136 11.748 45.773 11.297 45.398 C3.289 39.05 -5.367 34.91 -15.188 32.203 C-20.402 30.527 -24.779 27.293 -27.375 22.5 C-28.442 16.206 -28.164 10.927 -24.75 5.438 C-18.634 -2.377 -9.066 -4.029 0 0 Z " fill="#6D64FD" transform="translate(27.375,1.5)"/>
<path d="M0 0 C3.125 0.375 3.125 0.375 6 1 C5.935 3.018 5.87 5.036 5.805 7.055 C5.817 9.239 5.817 9.239 8 11 C9.057 16.028 9.045 21.26 8.918 26.379 C8.6 37.636 8.6 37.636 12.125 48.25 C13 50 13 50 13 52 C17.95 52.33 22.9 52.66 28 53 C28 53.33 28 53.66 28 54 C11.83 54 -4.34 54 -21 54 C-21 53.67 -21 53.34 -21 53 C-14.565 52.505 -14.565 52.505 -8 52 C-8.99 51.01 -9.98 50.02 -11 49 C-11.949 46.738 -11.949 46.738 -12.688 44.312 C-12.939 43.504 -13.19 42.696 -13.449 41.863 C-13.631 41.248 -13.813 40.634 -14 40 C-8.65 40.373 -6.491 41.996 -3 46 C-3.023 45.166 -3.046 44.332 -3.07 43.473 C-3.338 26.763 -3.338 26.763 1.062 21.562 C1.702 21.047 2.341 20.531 3 20 C3.33 19.34 3.66 18.68 4 18 C2.35 18.66 0.7 19.32 -1 20 C-0.905 19.203 -0.809 18.407 -0.711 17.586 C0.194 9.616 0.194 9.616 -2 2 C-1.34 1.34 -0.68 0.68 0 0 Z M2 38 C1.806 40.124 1.62 42.25 1.438 44.375 C1.333 45.558 1.229 46.742 1.121 47.961 C0.758 50.919 0.758 50.919 2 53 C3.65 53 5.3 53 7 53 C7.66 51.68 8.32 50.36 9 49 C8.662 48.541 8.325 48.082 7.977 47.609 C7.531 46.996 7.085 46.382 6.625 45.75 C6.184 45.147 5.743 44.543 5.289 43.922 C4.007 42.01 2.984 40.079 2 38 Z M-2 49 C-1 51 -1 51 -1 51 Z " fill="#2F2D41" transform="translate(73,35)"/>
<path d="M0 0 C6.27 0 12.54 0 19 0 C19 8.58 19 17.16 19 26 C16.69 26 14.38 26 12 26 C12 24.02 12 22.04 12 20 C11.67 20 11.34 20 11 20 C11 21.98 11 23.96 11 26 C10.01 25.67 9.02 25.34 8 25 C8 24.34 8 23.68 8 23 C5.98 23.602 3.979 24.273 2 25 C1.67 25.66 1.34 26.32 1 27 C-4.94 27 -10.88 27 -17 27 C-15.35 23.37 -13.7 19.74 -12 16 C-6.802 17.361 -3.905 19.467 0 23 C0.855 20.035 1.135 17.395 1.125 14.312 C1.128 13.525 1.13 12.737 1.133 11.926 C0.952 7.937 0.441 3.969 0 0 Z " fill="#FEFEFE" transform="translate(39,24)"/>
<path d="M0 0 C7.482 -0.449 13.863 -0.738 20 4 C26.207 9.887 29.139 15.143 29.98 23.641 C30.011 27.35 29.092 30.467 28 34 C27.34 34 26.68 34 26 34 C26 34.66 26 35.32 26 36 C25.01 36 24.02 36 23 36 C23 27.09 23 18.18 23 9 C16.4 9 9.8 9 3 9 C0 3 0 3 0 0 Z " fill="#FAFAFA" transform="translate(36,14)"/>
<path d="M0 0 C3.125 0.375 3.125 0.375 6 1 C5.935 3.018 5.87 5.036 5.805 7.055 C5.817 9.239 5.817 9.239 8 11 C8.319 12.971 8.319 12.971 8.414 15.352 C8.453 16.202 8.491 17.053 8.531 17.93 C8.562 18.819 8.593 19.709 8.625 20.625 C8.664 21.522 8.702 22.419 8.742 23.344 C8.837 25.562 8.919 27.781 9 30 C5.37 29.67 1.74 29.34 -2 29 C-0.976 23.88 -0.579 23.244 3 20 C3.33 19.34 3.66 18.68 4 18 C2.35 18.66 0.7 19.32 -1 20 C-0.905 19.203 -0.809 18.407 -0.711 17.586 C0.194 9.616 0.194 9.616 -2 2 C-1.34 1.34 -0.68 0.68 0 0 Z " fill="#6C63FB" transform="translate(73,35)"/>
<path d="M0 0 C3.958 0.276 5.7 0.741 8.75 3.375 C11 6 11 6 13 9 C13.66 9 14.32 9 15 9 C15.33 10.32 15.66 11.64 16 13 C19.004 12.305 19.004 12.305 22 11 C22.969 8.968 22.969 8.968 23 7 C23.99 7.33 24.98 7.66 26 8 C26.495 9.98 26.495 9.98 27 12 C31.95 12.33 36.9 12.66 42 13 C42 13.33 42 13.66 42 14 C25.83 14 9.66 14 -7 14 C-7 13.67 -7 13.34 -7 13 C-0.565 12.505 -0.565 12.505 6 12 C5.01 11.01 4.02 10.02 3 9 C2.051 6.738 2.051 6.738 1.312 4.312 C1.061 3.504 0.81 2.696 0.551 1.863 C0.369 1.248 0.187 0.634 0 0 Z " fill="#E9E9EC" transform="translate(59,75)"/>
<path d="M0 0 C5.198 1.361 8.095 3.467 12 7 C12.66 5.68 13.32 4.36 14 3 C16.97 3.33 19.94 3.66 23 4 C23 5.98 23 7.96 23 10 C22.01 9.67 21.02 9.34 20 9 C20 8.34 20 7.68 20 7 C17.98 7.602 15.979 8.273 14 9 C13.67 9.66 13.34 10.32 13 11 C7.06 11 1.12 11 -5 11 C-3.35 7.37 -1.7 3.74 0 0 Z " fill="#FAFAFC" transform="translate(27,40)"/>
<path d="M0 0 C0.973 2.918 1.003 4.331 0.812 7.312 C0.76 11.966 1.923 14.41 5 18 C7.749 20.286 10.391 21.726 13.703 23.051 C14.602 23.42 15.5 23.789 16.426 24.17 C18.291 24.925 20.158 25.675 22.027 26.42 C28.046 28.906 33.002 31.819 38 36 C37.67 37.32 37.34 38.64 37 40 C35.639 38.701 35.639 38.701 34.25 37.375 C27.26 31.402 18.954 28.12 10.188 25.703 C4.973 24.027 0.596 20.793 -2 16 C-2.618 10.367 -2.99 4.987 0 0 Z " fill="#5F57D4" transform="translate(2,8)"/>
<path d="M0 0 C3.125 -0.058 6.25 -0.094 9.375 -0.125 C10.264 -0.142 11.154 -0.159 12.07 -0.176 C12.921 -0.182 13.772 -0.189 14.648 -0.195 C15.827 -0.211 15.827 -0.211 17.029 -0.227 C19 0 19 0 21 2 C21.27 4.688 21.087 7.291 21 10 C9.041 10.565 9.041 10.565 5 7 C0 1.652 0 1.652 0 0 Z " fill="#FCFCFC" transform="translate(22,52)"/>
<path d="M0 0 C4.389 0.665 7.981 2.188 12 4 C10.419 7.738 8.817 11.367 7 15 C12.61 15.33 18.22 15.66 24 16 C24.33 15.34 24.66 14.68 25 14 C25 14.99 25 15.98 25 17 C19.06 17.33 13.12 17.66 7 18 C6.67 18.66 6.34 19.32 6 20 C5.181 18.754 4.37 17.503 3.562 16.25 C3.11 15.554 2.658 14.858 2.191 14.141 C-0.393 9.497 -0.087 5.191 0 0 Z M7 20 C8.98 20.99 8.98 20.99 11 22 C10.01 22 9.02 22 8 22 C7.67 21.34 7.34 20.68 7 20 Z " fill="#C3C2CB" transform="translate(16,35)"/>
<path d="M0 0 C0.99 0.33 1.98 0.66 3 1 C2.01 1 1.02 1 0 1 C0 0.67 0 0.34 0 0 Z M4 3 C10.103 9.103 11.93 13.524 12 22 C11.543 24.787 10.837 27.291 10 30 C9.34 30 8.68 30 8 30 C8 30.66 8 31.32 8 32 C7.01 32 6.02 32 5 32 C4.67 22.43 4.34 12.86 4 3 Z " fill="#F5F4F5" transform="translate(54,18)"/>
<path d="M0 0 C0.33 0 0.66 0 1 0 C1.221 3.97 0.883 5.233 -1 9 C-8.26 9 -15.52 9 -23 9 C-23 7.02 -23 5.04 -23 3 C-21.987 3.108 -21.987 3.108 -20.953 3.219 C-20.061 3.312 -19.169 3.404 -18.25 3.5 C-17.368 3.593 -16.487 3.686 -15.578 3.781 C-11.897 4.094 -8.399 3.987 -4.75 3.5 C-3.513 3.335 -2.275 3.17 -1 3 C-0.67 2.01 -0.34 1.02 0 0 Z " fill="#E4E3E7" transform="translate(68,54)"/>
<path d="M0 0 C3.062 0.312 3.062 0.312 4.938 1.5 C6.485 3.993 6.567 5.432 6.062 8.312 C3.91 10.625 2.565 11.241 -0.562 11.688 C-1.346 11.564 -2.13 11.44 -2.938 11.312 C-5.239 7.86 -5.282 6.365 -4.938 2.312 C-2.938 0.312 -2.938 0.312 0 0 Z " fill="#FAF9FC" transform="translate(17.9375,9.6875)"/>
<path d="M0 0 C1.461 2.647 2 3.894 2 7 C4.64 7 7.28 7 10 7 C10 7.33 10 7.66 10 8 C15.61 8 21.22 8 27 8 C27 8.99 27 9.98 27 11 C22.688 11.029 18.375 11.047 14.062 11.062 C12.215 11.075 12.215 11.075 10.33 11.088 C9.16 11.091 7.99 11.094 6.785 11.098 C5.159 11.106 5.159 11.106 3.5 11.114 C1 11 1 11 0 10 C-2.328 9.632 -4.662 9.298 -7 9 C-7 8.67 -7 8.34 -7 8 C-4.69 8 -2.38 8 0 8 C0 5.36 0 2.72 0 0 Z " fill="#D1D0D1" transform="translate(43,54)"/>
<path d="M0 0 C0.99 0.33 1.98 0.66 3 1 C3.33 2.32 3.66 3.64 4 5 C8.95 5.33 13.9 5.66 19 6 C19 6.33 19 6.66 19 7 C8.44 7 -2.12 7 -13 7 C-13 5 -13 5 -11.625 3.375 C-10 2 -10 2 -8 2 C-7.67 3.32 -7.34 4.64 -7 6 C-3.996 5.305 -3.996 5.305 -1 4 C-0.031 1.968 -0.031 1.968 0 0 Z " fill="#878790" transform="translate(82,82)"/>
<path d="M0 0 C2.31 0 4.62 0 7 0 C5.844 3.912 4.645 6.875 2 10 C0.684 6.38 0 3.904 0 0 Z " fill="#FBFBFB" transform="translate(18,42)"/>
<path d="M0 0 C1.207 0.031 1.207 0.031 2.438 0.062 C3.062 2.438 3.062 2.438 3.438 5.062 C2.778 5.722 2.117 6.383 1.438 7.062 C-1.188 6.688 -1.188 6.688 -3.562 6.062 C-3.605 4.396 -3.603 2.729 -3.562 1.062 C-2.562 0.062 -2.562 0.062 0 0 Z " fill="#7067FE" transform="translate(44.5625,46.9375)"/>
<path d="M0 0 C0.99 0 1.98 0 3 0 C2.188 2.438 2.188 2.438 1 5 C0.01 5.33 -0.98 5.66 -2 6 C-2.33 7.65 -2.66 9.3 -3 11 C-3.33 10.34 -3.66 9.68 -4 9 C-4.99 9 -5.98 9 -7 9 C-7 7 -7 7 -4.625 4.5 C-3.759 3.675 -2.892 2.85 -2 2 C-1.34 1.34 -0.68 0.68 0 0 Z " fill="#F2AFBB" transform="translate(74,53)"/>
<path d="M0 0 C2.97 0.495 2.97 0.495 6 1 C6 2.98 6 4.96 6 7 C5.01 6.34 4.02 5.68 3 5 C1.345 4.615 -0.322 4.272 -2 4 C-1.34 2.68 -0.68 1.36 0 0 Z " fill="#323044" transform="translate(73,35)"/>
<path d="M0 0 C3.669 0.706 6.705 2.277 10 4 C10 4.33 10 4.66 10 5 C6.7 5 3.4 5 0 5 C0 3.35 0 1.7 0 0 Z " fill="#F9F9FC" transform="translate(17,35)"/>
<path d="M0 0 C0.33 1.32 0.66 2.64 1 4 C2.98 4 4.96 4 7 4 C7 4.33 7 4.66 7 5 C3.04 5 -0.92 5 -5 5 C-5 3 -5 3 -3.625 1.375 C-2 0 -2 0 0 0 Z " fill="#877F8C" transform="translate(74,84)"/>
<path d="M0 0 C2.475 0.495 2.475 0.495 5 1 C5.33 1.99 5.66 2.98 6 4 C4.35 4 2.7 4 1 4 C0.67 2.68 0.34 1.36 0 0 Z " fill="#F7B3B6" transform="translate(72,39)"/>
<path d="M0 0 C1.32 0 2.64 0 4 0 C3.34 1.98 2.68 3.96 2 6 C0 3 0 3 0 0 Z " fill="#D2D0DE" transform="translate(36,14)"/>
<path d="M0 0 C0.99 0.33 1.98 0.66 3 1 C3 1.66 3 2.32 3 3 C1.68 2.67 0.36 2.34 -1 2 C-0.67 1.34 -0.34 0.68 0 0 Z " fill="#FBB4B6" transform="translate(82,82)"/>
<path d="M0 0 C0.66 0 1.32 0 2 0 C2 0.99 2 1.98 2 3 C1.01 3 0.02 3 -1 3 C-0.67 2.01 -0.34 1.02 0 0 Z " fill="#534F64" transform="translate(56,56)"/>
</svg>