
<!-- Generator: visioncortex VTracer 0.6.4 -->
<svg version="1.1" xmlns="http://www.w3.org/2000/svg" viewBox="0 0 97 69" preserveAspectRatio="xMidYMid meet">
<path d="M0 0 C1.65 0 3.3 0 5 0 C5.495 2.475 5.495 2.475 6 5 C6.722 5.062 7.444 5.124 8.188 5.188 C12.072 6.31 13.532 7.798 16 11 C18.414 16.922 17.995 22.409 16.996 28.617 C16.751 31.081 16.751 31.081 18.473 32.82 C18.977 33.21 19.481 33.599 20 34 C20.66 33.01 21.32 32.02 22 31 C21.67 30.67 21.34 30.34 21 30 C20.875 27.5 20.875 27.5 21 25 C22.663 23.337 24.783 23.64 27.062 23.438 C28.441 23.312 28.441 23.312 29.848 23.184 C30.558 23.123 31.268 23.062 32 23 C33.663 25.675 35 28 36 31 C34.35 31 32.7 31 31 31 C30.505 29.02 30.505 29.02 30 27 C29.01 28.98 28.02 30.96 27 33 C27.681 33.578 28.361 34.155 29.062 34.75 C29.702 35.492 30.341 36.235 31 37 C30.812 38.938 30.812 38.938 30 41 C29.388 43.789 29 46.133 29 49 C32.3 49.33 35.6 49.66 39 50 C39.66 49.01 40.32 48.02 41 47 C43.625 46.812 43.625 46.812 46 47 C46 49.667 46 52.333 46 55 C46.103 56.114 46.206 57.227 46.312 58.375 C46 62 46 62 43.5 64.938 C42.675 65.618 41.85 66.299 41 67 C43.97 67.33 46.94 67.66 50 68 C50 68.33 50 68.66 50 69 C17.99 69 -14.02 69 -47 69 C-47 68.67 -47 68.34 -47 68 C-44.03 68 -41.06 68 -38 68 C-38.33 66.68 -38.66 65.36 -39 64 C-38.915 62.308 -38.763 60.619 -38.562 58.938 C-38.158 54.971 -37.877 51.05 -37.812 47.062 C-37.791 45.75 -37.791 45.75 -37.77 44.41 C-38.016 41.835 -38.7 40.215 -40 38 C-38.719 36.293 -37.382 34.626 -36 33 C-35.34 33 -34.68 33 -34 33 C-34 32.34 -34 31.68 -34 31 C-34.66 31 -35.32 31 -36 31 C-36.043 29.334 -36.041 27.666 -36 26 C-35 25 -35 25 -32.5 24.875 C-30 25 -30 25 -29 26 C-28.956 27.666 -28.96 29.334 -29 31 C-29 34.633 -28.044 36.047 -26 39 C-25.01 39.66 -24.02 40.32 -23 41 C-22.812 44.625 -22.812 44.625 -23 48 C-23.624 48.152 -24.248 48.304 -24.891 48.461 C-27.805 50.587 -27.823 52.54 -28.386 55.991 C-28.506 56.86 -28.626 57.729 -28.75 58.625 C-29.163 61.389 -29.575 64.153 -30 67 C-21.09 67 -12.18 67 -3 67 C-3 65.02 -3 63.04 -3 61 C-1.938 59.062 -1.938 59.062 0 58 C6.444 58.444 6.444 58.444 8 60 C8.235 65.529 8.235 65.529 7 68 C11.95 67.505 11.95 67.505 17 67 C16.67 66.34 16.34 65.68 16 65 C15.903 62.856 15.87 60.709 15.875 58.562 C15.871 56.832 15.871 56.832 15.867 55.066 C16 52 16 52 17 49 C15.082 49.031 15.082 49.031 13.125 49.062 C9.25 49.125 9.25 49.125 7 48 C6.34 49.65 5.68 51.3 5 53 C2.625 53.125 2.625 53.125 0 53 C-0.66 52.34 -1.32 51.68 -2 51 C-2 50.01 -2 49.02 -2 48 C-2.888 48.052 -2.888 48.052 -3.793 48.105 C-7.528 48.233 -10.449 48.195 -14 46.938 C-16.818 44.208 -16.784 41.818 -17 38 C-18.32 37.67 -19.64 37.34 -21 37 C-20.67 35.35 -20.34 33.7 -20 32 C-18.608 32.093 -18.608 32.093 -17.188 32.188 C-14.016 32.309 -14.016 32.309 -12.125 30.5 C-11.754 30.005 -11.383 29.51 -11 29 C-11.495 28.598 -11.99 28.196 -12.5 27.781 C-14.826 25.019 -14.088 22.601 -13.812 19.156 C-14.05 16.421 -15.008 15.785 -17 14 C-17 13.34 -17 12.68 -17 12 C-17.99 12.495 -17.99 12.495 -19 13 C-20.955 13.123 -22.916 13.176 -24.875 13.188 C-25.924 13.202 -26.974 13.216 -28.055 13.23 C-30.96 13.003 -32.595 12.605 -35 11 C-35.812 9 -35.812 9 -36 7 C-35.67 6.34 -35.34 5.68 -35 5 C-33.35 5 -31.7 5 -30 5 C-29.066 8.01 -28.956 8.867 -30 12 C-27.165 11.573 -24.332 11.134 -21.5 10.688 C-20.709 10.57 -19.917 10.452 -19.102 10.33 C-15.096 9.69 -11.436 8.886 -7.656 7.395 C-4 6 -4 6 0 6 C0 4.02 0 2.04 0 0 Z M2 6 C4.69 8.69 7.453 9.693 11 11 C11.99 10.67 12.98 10.34 14 10 C10.308 6.462 6.906 6.409 2 6 Z M-8 9 C-8.99 9.33 -9.98 9.66 -11 10 C-11 10.66 -11 11.32 -11 12 C-9.35 11.34 -7.7 10.68 -6 10 C-6.66 9.67 -7.32 9.34 -8 9 Z M-3.375 18.688 C-5.298 21.424 -5.14 22.742 -5 26 C-3.396 25.521 -1.792 25.042 -0.188 24.562 C0.706 24.296 1.599 24.029 2.52 23.754 C4.355 23.196 6.18 22.607 8 22 C7.652 20.025 7.652 20.025 7 18 C3.226 16.113 0.051 16.253 -3.375 18.688 Z M1 25 C1.33 26.98 1.66 28.96 2 31 C-0.438 30.625 -0.438 30.625 -3 30 C-3.33 29.34 -3.66 28.68 -4 28 C-8.527 29.465 -11.672 31.597 -15 35 C-16.32 38.487 -16.32 38.487 -16 42 C-14.159 44.413 -12.697 45.652 -10 47 C-7.667 47.04 -5.333 47.043 -3 47 C-2.876 46.215 -2.752 45.43 -2.625 44.621 C-1.236 37.548 0.241 33.73 6.258 29.598 C8.496 27.545 8.669 25.96 9 23 C5.796 23 3.906 23.743 1 25 Z M11.492 34.285 C8.416 37.666 7.073 39.238 6.625 43.938 C6.749 44.948 6.873 45.959 7 47 C10.3 47.33 13.6 47.66 17 48 C17.99 45.03 18.98 42.06 20 39 C19.01 38.67 18.02 38.34 17 38 C15.812 35.438 15.812 35.438 15 33 C12.923 32.784 12.923 32.784 11.492 34.285 Z M29 50 C29.33 55.94 29.66 61.88 30 68 C36.412 68 39.339 67.209 44 63 C45.488 60.077 45.488 60.077 45 57 C43.471 54.075 42.205 52.475 39.09 51.246 C35.579 50.308 32.672 50 29 50 Z M22 53 C21.472 55.311 20.952 57.624 20.438 59.938 C20.286 60.597 20.135 61.256 19.979 61.936 C19.608 63.615 19.299 65.307 19 67 C20.112 68.332 20.112 68.332 22.938 68.188 C26.109 68.333 26.109 68.333 28 66 C27.384 64.018 26.757 62.039 26.125 60.062 C25.777 58.96 25.429 57.858 25.07 56.723 C24.3 53.871 24.3 53.871 22 53 Z M-34 58 C-34.66 60.97 -35.32 63.94 -36 67 C-35.01 67 -34.02 67 -33 67 C-33 64.03 -33 61.06 -33 58 C-33.33 58 -33.66 58 -34 58 Z " fill="#353245" transform="translate(47,0)"/>
<path d="M0 0 C1.65 0 3.3 0 5 0 C5.495 2.475 5.495 2.475 6 5 C6.722 5.062 7.444 5.124 8.188 5.188 C12.072 6.31 13.532 7.798 16 11 C18.402 17.106 18.012 22.627 17 29 C16.01 29.33 15.02 29.66 14 30 C13.814 30.835 13.814 30.835 13.625 31.688 C13 34 13 34 10.5 36.812 C7.692 39.976 7.254 42.77 7 47 C8.986 46.935 10.971 46.87 12.957 46.805 C15 47 15 47 18 49 C16.542 49.027 15.083 49.046 13.625 49.062 C12.407 49.08 12.407 49.08 11.164 49.098 C9 49 9 49 7 48 C6.34 49.65 5.68 51.3 5 53 C2.625 53.125 2.625 53.125 0 53 C-0.66 52.34 -1.32 51.68 -2 51 C-2 50.01 -2 49.02 -2 48 C-2.888 48.052 -2.888 48.052 -3.793 48.105 C-7.528 48.233 -10.449 48.195 -14 46.938 C-16.818 44.208 -16.784 41.818 -17 38 C-18.32 37.67 -19.64 37.34 -21 37 C-20.67 35.35 -20.34 33.7 -20 32 C-18.608 32.093 -18.608 32.093 -17.188 32.188 C-14.016 32.309 -14.016 32.309 -12.125 30.5 C-11.754 30.005 -11.383 29.51 -11 29 C-11.495 28.598 -11.99 28.196 -12.5 27.781 C-14.826 25.019 -14.088 22.601 -13.812 19.156 C-14.05 16.421 -15.008 15.785 -17 14 C-17 13.34 -17 12.68 -17 12 C-17.99 12.495 -17.99 12.495 -19 13 C-20.955 13.123 -22.916 13.176 -24.875 13.188 C-25.924 13.202 -26.974 13.216 -28.055 13.23 C-30.96 13.003 -32.595 12.605 -35 11 C-35.812 9 -35.812 9 -36 7 C-35.67 6.34 -35.34 5.68 -35 5 C-33.35 5 -31.7 5 -30 5 C-29.066 8.01 -28.956 8.867 -30 12 C-27.165 11.573 -24.332 11.134 -21.5 10.688 C-20.709 10.57 -19.917 10.452 -19.102 10.33 C-15.096 9.69 -11.436 8.886 -7.656 7.395 C-4 6 -4 6 0 6 C0 4.02 0 2.04 0 0 Z M2 6 C4.69 8.69 7.453 9.693 11 11 C11.99 10.67 12.98 10.34 14 10 C10.308 6.462 6.906 6.409 2 6 Z M-8 9 C-8.99 9.33 -9.98 9.66 -11 10 C-11 10.66 -11 11.32 -11 12 C-9.35 11.34 -7.7 10.68 -6 10 C-6.66 9.67 -7.32 9.34 -8 9 Z M-3.375 18.688 C-5.298 21.424 -5.14 22.742 -5 26 C-3.396 25.521 -1.792 25.042 -0.188 24.562 C0.706 24.296 1.599 24.029 2.52 23.754 C4.355 23.196 6.18 22.607 8 22 C7.652 20.025 7.652 20.025 7 18 C3.226 16.113 0.051 16.253 -3.375 18.688 Z M1 25 C1.33 26.98 1.66 28.96 2 31 C-0.438 30.625 -0.438 30.625 -3 30 C-3.33 29.34 -3.66 28.68 -4 28 C-8.527 29.465 -11.672 31.597 -15 35 C-16.32 38.487 -16.32 38.487 -16 42 C-14.159 44.413 -12.697 45.652 -10 47 C-7.667 47.04 -5.333 47.043 -3 47 C-2.876 46.215 -2.752 45.43 -2.625 44.621 C-1.236 37.548 0.241 33.73 6.258 29.598 C8.496 27.545 8.669 25.96 9 23 C5.796 23 3.906 23.743 1 25 Z " fill="#FAC827" transform="translate(47,0)"/>
<path d="M0 0 C2.5 0.125 2.5 0.125 3.5 1.125 C3.544 2.791 3.54 4.459 3.5 6.125 C3.5 9.758 4.456 11.172 6.5 14.125 C7.49 14.785 8.48 15.445 9.5 16.125 C9.688 19.75 9.688 19.75 9.5 23.125 C8.876 23.277 8.252 23.429 7.609 23.586 C4.695 25.712 4.677 27.665 4.114 31.116 C3.934 32.42 3.934 32.42 3.75 33.75 C3.337 36.514 2.925 39.278 2.5 42.125 C11.41 42.125 20.32 42.125 29.5 42.125 C29.5 40.145 29.5 38.165 29.5 36.125 C30.562 34.188 30.562 34.188 32.5 33.125 C38.944 33.569 38.944 33.569 40.5 35.125 C40.735 40.654 40.735 40.654 39.5 43.125 C42.14 43.125 44.78 43.125 47.5 43.125 C47.5 43.455 47.5 43.785 47.5 44.125 C27.04 44.125 6.58 44.125 -14.5 44.125 C-14.5 43.795 -14.5 43.465 -14.5 43.125 C-11.53 43.125 -8.56 43.125 -5.5 43.125 C-5.83 41.805 -6.16 40.485 -6.5 39.125 C-6.415 37.433 -6.263 35.744 -6.062 34.062 C-5.658 30.096 -5.377 26.175 -5.312 22.188 C-5.291 20.875 -5.291 20.875 -5.27 19.535 C-5.516 16.96 -6.2 15.34 -7.5 13.125 C-6.219 11.418 -4.882 9.751 -3.5 8.125 C-2.84 8.125 -2.18 8.125 -1.5 8.125 C-1.5 7.465 -1.5 6.805 -1.5 6.125 C-2.16 6.125 -2.82 6.125 -3.5 6.125 C-3.543 4.459 -3.541 2.791 -3.5 1.125 C-2.5 0.125 -2.5 0.125 0 0 Z M-1.5 33.125 C-2.16 36.095 -2.82 39.065 -3.5 42.125 C-2.51 42.125 -1.52 42.125 -0.5 42.125 C-0.5 39.155 -0.5 36.185 -0.5 33.125 C-0.83 33.125 -1.16 33.125 -1.5 33.125 Z " fill="#312F42" transform="translate(14.5,24.875)"/>
<path d="M0 0 C1 1 1 1 1.125 3.938 C1 7 1 7 0 9 C2.64 9 5.28 9 8 9 C8 9.33 8 9.66 8 10 C-12.46 10 -32.92 10 -54 10 C-54 9.67 -54 9.34 -54 9 C-51.03 9 -48.06 9 -45 9 C-45 8.01 -45 7.02 -45 6 C-44.43 6.143 -43.861 6.286 -43.274 6.433 C-36.082 8.072 -29.228 8.236 -21.875 8.125 C-20.728 8.116 -19.58 8.107 -18.398 8.098 C-15.599 8.074 -12.799 8.042 -10 8 C-10.022 7.05 -10.044 6.1 -10.066 5.121 C-10 2 -10 2 -8.938 0.062 C-5.848 -1.632 -3.328 -0.74 0 0 Z " fill="#3B384F" transform="translate(54,59)"/>
<path d="M0 0 C1.65 0 3.3 0 5 0 C5.495 2.475 5.495 2.475 6 5 C6.722 5.062 7.444 5.124 8.188 5.188 C11.96 6.277 13.574 7.951 16 11 C16.312 13.813 16.312 13.813 16 16 C13.085 13.465 13.085 13.465 12.625 10.938 C12.161 8.807 12.161 8.807 10 7.688 C3.064 6.098 -4.217 8.348 -11 10 C-10.805 10.624 -10.611 11.248 -10.41 11.891 C-10.275 12.587 -10.139 13.283 -10 14 C-11.438 15.75 -11.438 15.75 -13 17 C-13.99 16.67 -14.98 16.34 -16 16 C-16.688 13.937 -16.688 13.937 -17 12 C-17.99 12.495 -17.99 12.495 -19 13 C-20.955 13.123 -22.916 13.176 -24.875 13.188 C-25.924 13.202 -26.974 13.216 -28.055 13.23 C-30.96 13.003 -32.595 12.605 -35 11 C-35.812 9 -35.812 9 -36 7 C-35.67 6.34 -35.34 5.68 -35 5 C-33.35 5 -31.7 5 -30 5 C-29.066 8.01 -28.956 8.867 -30 12 C-27.165 11.573 -24.332 11.134 -21.5 10.688 C-20.709 10.57 -19.917 10.452 -19.102 10.33 C-15.096 9.69 -11.436 8.886 -7.656 7.395 C-4 6 -4 6 0 6 C0 4.02 0 2.04 0 0 Z " fill="#F1EFEF" transform="translate(47,0)"/>
<path d="M0 0 C2.5 0.125 2.5 0.125 3.5 1.125 C3.544 2.791 3.54 4.459 3.5 6.125 C3.5 9.329 4.243 11.219 5.5 14.125 C4.51 14.125 3.52 14.125 2.5 14.125 C2.191 15.074 1.881 16.023 1.562 17 C0.5 20.125 0.5 20.125 -0.5 22.125 C0.82 22.785 2.14 23.445 3.5 24.125 C-2.25 23.25 -2.25 23.25 -4.5 22.125 C-5.231 20.148 -5.894 18.144 -6.5 16.125 C-6.83 15.135 -7.16 14.145 -7.5 13.125 C-5.687 10.438 -5.687 10.438 -3.5 8.125 C-2.84 8.125 -2.18 8.125 -1.5 8.125 C-1.5 7.465 -1.5 6.805 -1.5 6.125 C-2.16 6.125 -2.82 6.125 -3.5 6.125 C-3.543 4.459 -3.541 2.791 -3.5 1.125 C-2.5 0.125 -2.5 0.125 0 0 Z " fill="#CAC6C8" transform="translate(14.5,24.875)"/>
<path d="M0 0 C-3.465 1.485 -3.465 1.485 -7 3 C-7 4.65 -7 6.3 -7 8 C-7.99 8.33 -8.98 8.66 -10 9 C-10.99 8.34 -11.98 7.68 -13 7 C-13 6.34 -13 5.68 -13 5 C-13.66 4.67 -14.32 4.34 -15 4 C-13.73 3.352 -12.459 2.706 -11.188 2.062 C-10.48 1.703 -9.772 1.343 -9.043 0.973 C-5.547 -0.692 -3.672 -1.14 0 0 Z M-17 5 C-15 6 -15 6 -15 6 Z M-19 6 C-18.34 6.33 -17.68 6.66 -17 7 C-17.969 7.681 -18.939 8.361 -19.938 9.062 C-22.645 11.314 -23.006 12.021 -24.062 15.625 C-24.328 18.887 -24.328 18.887 -22.789 20.637 C-20.636 22.277 -18.962 22.688 -16.312 23.188 C-15.1 23.425 -15.1 23.425 -13.863 23.668 C-13.248 23.778 -12.634 23.887 -12 24 C-11.67 22.68 -11.34 21.36 -11 20 C-11 21.65 -11 23.3 -11 25 C-15.262 25.251 -18.94 25.375 -23 23.938 C-25.818 21.208 -25.784 18.818 -26 15 C-27.32 14.67 -28.64 14.34 -30 14 C-29.67 12.35 -29.34 10.7 -29 9 C-28.093 9.062 -27.185 9.124 -26.25 9.188 C-22.71 8.983 -21.551 8.354 -19 6 Z " fill="#F1F1F1" transform="translate(56,23)"/>
<path d="M0 0 C1 1 1 1 1.125 3.938 C1 7 1 7 0 9 C-5.4 9.36 -5.4 9.36 -7.875 7.875 C-9.468 5.22 -9.202 3.032 -9 0 C-5.908 -1.546 -3.315 -0.603 0 0 Z " fill="#F6C322" transform="translate(54,59)"/>
<path d="M0 0 C2.625 -0.188 2.625 -0.188 5 0 C5 2.667 5 5.333 5 8 C5.103 9.114 5.206 10.227 5.312 11.375 C5 15 5 15 2.812 17.875 C0.023 19.983 -1.565 20.706 -5 21 C-4.422 20.588 -3.845 20.175 -3.25 19.75 C0.14 17.147 0.14 17.147 3 14 C3.247 10.897 3.247 10.897 2 8 C-1.932 4.56 -6.996 3.927 -12 3 C-12 2.67 -12 2.34 -12 2 C-8.7 2.33 -5.4 2.66 -2 3 C-1.34 2.01 -0.68 1.02 0 0 Z " fill="#F1F1F1" transform="translate(88,47)"/>
<path d="M0 0 C2.97 0.495 2.97 0.495 6 1 C6.976 3.928 7.082 5.956 7 9 C5.187 10.062 5.187 10.062 3 11 C0 10 0 10 -3 8 C-1.125 2.25 -1.125 2.25 0 0 Z " fill="#464156" transform="translate(17,39)"/>
<path d="M0 0 C1.845 2.626 2.984 4.951 4 8 C2.35 8 0.7 8 -1 8 C-1.33 6.68 -1.66 5.36 -2 4 C-2.66 5.32 -3.32 6.64 -4 8 C-4.33 7.34 -4.66 6.68 -5 6 C-6.98 6 -8.96 6 -11 6 C-10.67 4.35 -10.34 2.7 -10 1 C-3.375 0 -3.375 0 0 0 Z " fill="#313042" transform="translate(79,23)"/>
<path d="M0 0 C1.65 0 3.3 0 5 0 C5.934 3.01 6.044 3.867 5 7 C10.94 6.505 10.94 6.505 17 6 C16.67 6.66 16.34 7.32 16 8 C14.084 8.054 12.167 8.093 10.25 8.125 C8.649 8.16 8.649 8.16 7.016 8.195 C4.053 8.003 2.441 7.643 0 6 C-0.812 4 -0.812 4 -1 2 C-0.67 1.34 -0.34 0.68 0 0 Z " fill="#F1F1F1" transform="translate(12,5)"/>
<path d="M0 0 C-2.647 1.461 -3.894 2 -7 2 C-6.773 2.598 -6.546 3.196 -6.312 3.812 C-6.209 4.534 -6.106 5.256 -6 6 C-7.438 7.75 -7.438 7.75 -9 9 C-9.99 8.67 -10.98 8.34 -12 8 C-13.188 5.437 -13.188 5.437 -14 3 C-12.045 2.303 -10.086 1.618 -8.125 0.938 C-7.034 0.555 -5.944 0.172 -4.82 -0.223 C-2 -1 -2 -1 0 0 Z " fill="#F0F0F0" transform="translate(43,8)"/>
<path d="M0 0 C3.443 0.689 4.532 1.585 6.5 4.5 C6.832 7.259 6.686 9.704 6.5 12.5 C5.84 12.17 5.18 11.84 4.5 11.5 C4.093 9.178 3.756 6.843 3.5 4.5 C0.2 4.5 -3.1 4.5 -6.5 4.5 C-4.419 2.033 -3.218 0.644 0 0 Z " fill="#514856" transform="translate(50.5,13.5)"/>
<path d="M0 0 C1.095 3.285 1.1 5.737 1.062 9.188 C1.053 10.274 1.044 11.361 1.035 12.48 C1.024 13.312 1.012 14.143 1 15 C2.98 15 4.96 15 7 15 C6.67 15.99 6.34 16.98 6 18 C3.625 18.125 3.625 18.125 1 18 C-1 16 -1 16 -1.23 12.812 C-1.216 11.554 -1.202 10.296 -1.188 9 C-1.181 7.742 -1.175 6.484 -1.168 5.188 C-1 2 -1 2 0 0 Z " fill="#504658" transform="translate(46,35)"/>
<path d="M0 0 C1.675 0.286 3.344 0.618 5 1 C5.201 4.716 5.152 5.772 3 9 C2.34 9 1.68 9 1 9 C0.639 7.689 0.286 6.376 -0.062 5.062 C-0.358 3.966 -0.358 3.966 -0.66 2.848 C-0.772 2.238 -0.884 1.628 -1 1 C-0.67 0.67 -0.34 0.34 0 0 Z " fill="#906260" transform="translate(69,28)"/>
<path d="M0 0 C0.289 0.619 0.578 1.237 0.875 1.875 C1.937 4.133 1.937 4.133 4 6 C6.365 6.301 8.744 6.495 11.125 6.625 C12.406 6.7 13.688 6.775 15.008 6.852 C15.995 6.901 16.983 6.95 18 7 C18 7.33 18 7.66 18 8 C11.73 8 5.46 8 -1 8 C-0.67 7.34 -0.34 6.68 0 6 C0.04 4 0.043 2 0 0 Z " fill="#403D54" transform="translate(44,61)"/>
<path d="M0 0 C0.33 0 0.66 0 1 0 C1.33 2.64 1.66 5.28 2 8 C3.65 8.33 5.3 8.66 7 9 C7 9.66 7 10.32 7 11 C4.688 11.688 4.688 11.688 2 12 C0.312 10.812 0.312 10.812 -1 9 C-1.074 6.738 -1.074 6.738 -0.688 4.312 C-0.568 3.504 -0.448 2.696 -0.324 1.863 C-0.217 1.248 -0.11 0.634 0 0 Z " fill="#4D4458" transform="translate(34,17)"/>
<path d="M0 0 C2.64 0.33 5.28 0.66 8 1 C7.01 2.485 7.01 2.485 6 4 C3.373 4.221 0.991 4.282 -1.625 4.188 C-2.331 4.174 -3.038 4.16 -3.766 4.146 C-5.511 4.111 -7.255 4.057 -9 4 C-9 3.67 -9 3.34 -9 3 C-6.03 3 -3.06 3 0 3 C0 2.01 0 1.02 0 0 Z " fill="#53485B" transform="translate(9,65)"/>
<path d="M0 0 C1.207 0.031 1.207 0.031 2.438 0.062 C2.767 1.052 3.098 2.043 3.438 3.062 C2.117 3.062 0.797 3.062 -0.562 3.062 C-0.562 4.053 -0.562 5.043 -0.562 6.062 C-1.553 6.062 -2.543 6.062 -3.562 6.062 C-3.605 4.396 -3.603 2.729 -3.562 1.062 C-2.562 0.062 -2.562 0.062 0 0 Z " fill="#393547" transform="translate(14.5625,24.9375)"/>
<path d="M0 0 C1.32 0 2.64 0 4 0 C3.67 1.32 3.34 2.64 3 4 C1.68 3.67 0.36 3.34 -1 3 C-0.67 2.01 -0.34 1.02 0 0 Z " fill="#FEB8B7" transform="translate(14,28)"/>
<path d="M0 0 C2.475 0.495 2.475 0.495 5 1 C4.34 2.32 3.68 3.64 3 5 C2.34 5 1.68 5 1 5 C0.67 3.35 0.34 1.7 0 0 Z " fill="#D1CFD0" transform="translate(69,32)"/>
<path d="M0 0 C0.99 0.33 1.98 0.66 3 1 C2.34 1.66 1.68 2.32 1 3 C-1.125 2.625 -1.125 2.625 -3 2 C-2.01 1.34 -1.02 0.68 0 0 Z " fill="#6A5664" transform="translate(14,66)"/>
<path d="M0 0 C0.99 0.33 1.98 0.66 3 1 C2.67 1.99 2.34 2.98 2 4 C1.34 3.67 0.68 3.34 0 3 C0 2.01 0 1.02 0 0 Z " fill="#9B6560" transform="translate(61,30)"/>
<path d="M0 0 C0.66 0.99 1.32 1.98 2 3 C1.01 3.33 0.02 3.66 -1 4 C-0.67 2.68 -0.34 1.36 0 0 Z " fill="#F1B3B3" transform="translate(22,45)"/>
</svg>